<?xml version="1.0" encoding="UTF-8" standalone="no"?>
<!-- Created with Inkscape (http://www.inkscape.org/) -->

<svg
   xmlns:dc="http://purl.org/dc/elements/1.1/"
   xmlns:cc="http://creativecommons.org/ns#"
   xmlns:rdf="http://www.w3.org/1999/02/22-rdf-syntax-ns#"
   xmlns:svg="http://www.w3.org/2000/svg"
   xmlns="http://www.w3.org/2000/svg"
   xmlns:xlink="http://www.w3.org/1999/xlink"
   xmlns:sodipodi="http://sodipodi.sourceforge.net/DTD/sodipodi-0.dtd"
   xmlns:inkscape="http://www.inkscape.org/namespaces/inkscape"
   id="svg2"
   version="1.1"
   inkscape:version="0.48.5 r10040"
   height="100%"
   viewBox="0 0 583.71875 528.5091"
   width="100%"
   sodipodi:docname="index.svg">
  <defs
     id="defs4">
    <linearGradient
       gradientUnits="userSpaceOnUse"
       y2="222.67021"
       x2="312.01755"
       y1="267.41238"
       x1="321.43695"
       id="linearGradient35677"
       xlink:href="#linearGradient35671"
       inkscape:collect="always" />
    <linearGradient
       gradientTransform="matrix(1.002406,0,0,0.702421,81.20491,93.2892)"
       y2="438.20673"
       x2="239.22368"
       y1="495.37619"
       x1="240.05624"
       gradientUnits="userSpaceOnUse"
       id="linearGradient34781"
       xlink:href="#linearGradient32052"
       inkscape:collect="always" />
    <linearGradient
       gradientTransform="matrix(2.923659,0,0,2.923659,-250.5077,-786.5955)"
       gradientUnits="userSpaceOnUse"
       y2="438.20673"
       x2="239.22368"
       y1="495.37619"
       x1="240.05624"
       id="linearGradient32058"
       xlink:href="#linearGradient32052"
       inkscape:collect="always" />
    <linearGradient
       gradientTransform="matrix(2.925609,0,0,-3.005492,-247.6942,2000.916)"
       y2="461.09125"
       x2="217.57607"
       y1="417.26208"
       x1="216.18919"
       gradientUnits="userSpaceOnUse"
       id="linearGradient29387"
       xlink:href="#linearGradient27599"
       inkscape:collect="always" />
    <linearGradient
       gradientTransform="matrix(2.923659,0,0,2.923659,-250.5077,-904.5955)"
       y2="425.99576"
       x2="216.18938"
       y1="402.68396"
       x1="215.91185"
       gradientUnits="userSpaceOnUse"
       id="linearGradient27609"
       xlink:href="#linearGradient27599"
       inkscape:collect="always" />
    <linearGradient
       gradientTransform="matrix(2.923659,0,0,2.923659,-250.5077,-904.5955)"
       gradientUnits="userSpaceOnUse"
       y2="425.99576"
       x2="216.18938"
       y1="462.3511"
       x1="216.18938"
       id="linearGradient27605"
       xlink:href="#linearGradient27599"
       inkscape:collect="always" />
    <linearGradient
       gradientTransform="matrix(2.923659,0,0,2.923659,-250.5077,-904.5955)"
       y2="426.55081"
       x2="112.95132"
       y1="409.34445"
       x1="114.61645"
       gradientUnits="userSpaceOnUse"
       id="linearGradient26711"
       xlink:href="#linearGradient26705"
       inkscape:collect="always" />
    <linearGradient
       gradientTransform="matrix(2.923659,0,0,2.923659,-250.5077,-904.5955)"
       gradientUnits="userSpaceOnUse"
       y2="434.87646"
       x2="112.95132"
       y1="446.25485"
       x1="112.95132"
       id="linearGradient26696"
       xlink:href="#linearGradient26690"
       inkscape:collect="always" />
    <linearGradient
       id="linearGradient26690"
       inkscape:collect="always">
      <stop
         id="stop26692"
         offset="0"
         style="stop-color:#797979;stop-opacity:1;" />
      <stop
         id="stop26694"
         offset="1"
         style="stop-color:#797979;stop-opacity:0;" />
    </linearGradient>
    <linearGradient
       id="linearGradient26705"
       inkscape:collect="always">
      <stop
         id="stop26707"
         offset="0"
         style="stop-color:black;stop-opacity:1;" />
      <stop
         id="stop26709"
         offset="1"
         style="stop-color:black;stop-opacity:0;" />
    </linearGradient>
    <linearGradient
       id="linearGradient27599"
       inkscape:collect="always">
      <stop
         id="stop27601"
         offset="0"
         style="stop-color:#a29b9b;stop-opacity:1;" />
      <stop
         id="stop27603"
         offset="1"
         style="stop-color:#a29b9b;stop-opacity:0;" />
    </linearGradient>
    <linearGradient
       id="linearGradient32052"
       inkscape:collect="always">
      <stop
         id="stop32054"
         offset="0"
         style="stop-color:white;stop-opacity:1;" />
      <stop
         id="stop32056"
         offset="1"
         style="stop-color:white;stop-opacity:0;" />
    </linearGradient>
    <linearGradient
       id="linearGradient35671"
       inkscape:collect="always">
      <stop
         id="stop35673"
         offset="0"
         style="stop-color:#cecece;stop-opacity:1;" />
      <stop
         id="stop35675"
         offset="1"
         style="stop-color:#cecece;stop-opacity:0;" />
    </linearGradient>
  </defs>
  <sodipodi:namedview
     id="base"
     pagecolor="#ffffff"
     bordercolor="#666666"
     borderopacity="1.0"
     inkscape:pageopacity="0.0"
     inkscape:pageshadow="2"
     inkscape:zoom="0.7"
     inkscape:cx="410.53984"
     inkscape:cy="256.30494"
     inkscape:document-units="px"
     inkscape:current-layer="svg2"
     showgrid="false"
     showguides="true"
     inkscape:guide-bbox="true"
     fit-margin-top="0"
     fit-margin-left="0"
     fit-margin-right="0"
     fit-margin-bottom="0"
     inkscape:window-width="1280"
     inkscape:window-height="947"
     inkscape:window-x="-9"
     inkscape:window-y="-9"
     inkscape:window-maximized="1" />
  <metadata
     id="metadata7">
    <rdf:RDF>
      <cc:Work
         rdf:about="">
        <dc:format>image/svg+xml</dc:format>
        <dc:type
           rdf:resource="http://purl.org/dc/dcmitype/StillImage" />
        <dc:title></dc:title>
      </cc:Work>
    </rdf:RDF>
  </metadata>
  <g
     inkscape:label="Layer 1"
     inkscape:groupmode="layer"
     id="layer1"
     transform="translate(-46.233881,-167.57557)">
    <path
       style="fill:none;stroke:#000000;stroke-width:6.65999985;stroke-linecap:butt;stroke-linejoin:miter;stroke-miterlimit:4;stroke-opacity:1;stroke-dasharray:none"
       d="m 82.857143,666.6479 139.999997,0 0,-254.28572 60.96702,-105.59797 116.17584,0 56.69736,105.16126 0,255.56859 135.07785,0"
       id="path2985"
       inkscape:connector-curvature="0"
       sodipodi:nodetypes="cccccccc" />
  </g>
  <g
     id="g3406"
     transform="matrix(0.37620565,0,0,0.37620565,-43.203651,185.49601)">
    <path
       inkscape:connector-curvature="0"
       sodipodi:nodetypes="ccccc"
       id="path2589"
       d="m 116.79051,405.58567 154.55333,-6.56599 1.01015,78.7919 -138.3909,1.51523 -17.17258,-73.74114 z"
       style="fill:none;stroke:#000000;stroke-width:3.9000001;stroke-linecap:butt;stroke-linejoin:round;stroke-miterlimit:4;stroke-opacity:1;stroke-dasharray:none" />
    <path
       inkscape:connector-curvature="0"
       sodipodi:nodetypes="cccccccc"
       id="path3363"
       d="m 277.70062,424.43719 8.57578,-0.59698 4.5979,-21.67516 8.02901,-2.15535 3.26505,61.55803 c -0.67511,-0.15141 -10.52172,0.52684 -10.22025,0.23107 l -4.66156,-18.35253 -8.58629,1.10206"
       style="fill:none;stroke:#000000;stroke-width:4;stroke-linecap:square;stroke-linejoin:bevel;stroke-miterlimit:4;stroke-opacity:1;stroke-dasharray:none" />
  </g>
  <use
     x="0"
     y="0"
     xlink:href="#g3406"
     id="use4245"
     transform="matrix(0.80476407,0.5935948,-0.5935948,0.80476407,254.69423,-180.96197)"
     width="515.57806"
     height="367.38986" />
  <use
     x="0"
     y="0"
     xlink:href="#use4245"
     id="use4247"
     transform="matrix(-1,0,0,1,587.69163,3.3480588e-6)"
     width="515.57806"
     height="367.38986" />
  <use
     x="0"
     y="0"
     xlink:href="#g3406"
     id="use4249"
     transform="matrix(-1,0,0,1,583.71874,-0.90862665)"
     width="515.57806"
     height="367.38986" />
  <use
     x="0"
     y="0"
     xlink:href="#use4247"
     id="use4251"
     transform="matrix(0.5,-0.8660254,0.8660254,0.5,-76.578178,416.62859)"
     width="541.95728"
     height="412.43427" />
  <path
     inkscape:connector-curvature="0"
     id="use4810"
     d="m 271.43431,502.24254 c -0.60922,1.13834 0.2356,1.71664 6.40608,4.38513 4.5975,1.98823 5.88989,2.66218 5.88989,3.07142 0,0.505 -1.02553,0.52429 -27.86134,0.52429 l -27.86134,0 -1.06724,0.97805 -1.06723,0.97804 0,7.18677 0,7.18677 1.06723,0.97804 1.06724,0.97805 56.86554,0 56.86555,0 1.06723,-0.97753 1.06723,-0.97753 0.0867,-6.64073 c 0.0943,-7.22537 0.007,-7.77076 -1.43139,-8.98143 l -0.84201,-0.7085 -26.12094,0 c -24.9976,0 -26.12094,-0.0222 -26.12094,-0.51613 0,-0.39793 1.32497,-1.09191 5.78571,-3.03036 5.9526,-2.58676 6.78572,-3.06181 6.78572,-3.86922 0,-1.14434 -0.15237,-1.15572 -15.47567,-1.15572 -14.65746,0 -14.79278,0.005 -15.10602,0.59059 z m 46.02535,14.50013 c 1.22625,1.22625 1.56246,2.16844 1.29071,3.61704 -0.4211,2.24464 -2.79369,3.70733 -4.96052,3.05814 -2.53489,-0.75948 -3.70879,-3.70254 -2.35229,-5.89741 0.80141,-1.2967 1.90241,-1.86848 3.59787,-1.86848 1.16419,0 1.47201,0.13849 2.42423,1.09071 z m -22.3861,-0.53085 c 1.19027,0.72575 1.79958,1.94547 1.79958,3.60242 0,1.16419 -0.13849,1.47201 -1.09071,2.42423 -1.22154,1.22154 -2.1686,1.56244 -3.59647,1.29457 -2.0998,-0.39393 -3.47203,-2.27076 -3.23003,-4.41779 0.11898,-1.05555 0.36395,-1.50205 1.30647,-2.38122 1.0085,-0.94072 1.33878,-1.08193 2.52825,-1.08101 0.85252,5.8e-4 1.71296,0.21128 2.28291,0.5588 z m -11.71429,-0.017 c 1.19417,0.75028 1.79958,1.96791 1.79958,3.61939 0,1.16419 -0.13849,1.47201 -1.09071,2.42423 -1.22626,1.22626 -2.16844,1.56246 -3.61704,1.29071 -2.24464,-0.4211 -3.70733,-2.79369 -3.05814,-4.96052 0.5132,-1.7129 1.75242,-2.7046 3.54528,-2.83715 1.1531,-0.0852 1.72082,0.0234 2.42103,0.46333 z"
     style="fill:#142808;fill-opacity:1"
     sodipodi:nodetypes="sssscccccccccccsscsssssssssssssssssscscssssscc" />
  <use
     x="0"
     y="0"
     xlink:href="#use4810"
     id="use4812"
     transform="matrix(1,0,0,-1,12.857141,632.16104)"
     width="617.71869"
     height="503.24847" />
  <use
     x="0"
     y="0"
     xlink:href="#use4812"
     id="use4814"
     transform="matrix(0.46631752,0.88461741,-0.88461741,0.46631752,369.47412,-131.23707)"
     width="617.71869"
     height="503.24847" />
  <use
     x="0"
     y="0"
     xlink:href="#use4814"
     id="use4816"
     transform="matrix(-0.53037443,-0.84776351,0.84776351,-0.53037443,245.74797,624.97896)"
     width="617.71869"
     height="503.24847" />
  <path
     inkscape:connector-curvature="0"
     id="use4818"
     d="m 168.62492,326.44218 c -1.13834,-0.60922 -1.71664,0.2356 -4.38513,6.40608 -1.98823,4.5975 -2.66218,5.88989 -3.07142,5.88989 -0.505,0 -0.52429,-1.02553 -0.52429,-27.86134 l 0,-27.86134 -0.97805,-1.06724 -0.97804,-1.06723 -7.18677,0 -7.18677,0 -0.97804,1.06723 -0.97805,1.06724 0,56.86554 0,56.86555 0.97753,1.06724 0.97753,1.06723 6.64073,0.0867 c 7.22537,0.0943 7.77076,0.007 8.98143,-1.4314 l 0.7085,-0.84201 0,-26.12094 c 0,-24.9976 0.0222,-26.12094 0.51613,-26.12094 0.39793,0 1.09191,1.32497 3.03036,5.78571 2.58676,5.9526 3.06181,6.78572 3.86922,6.78572 1.14434,0 1.15572,-0.15237 1.15572,-15.47567 0,-14.65746 -0.005,-14.79278 -0.59059,-15.10602 z m -14.50013,46.02535 c -1.22625,1.22625 -2.16844,1.56246 -3.61704,1.29071 -2.24464,-0.42109 -3.70733,-2.79369 -3.05814,-4.96052 0.75948,-2.53489 3.70254,-3.70879 5.89741,-2.35229 1.2967,0.80141 1.86848,1.90241 1.86848,3.59787 0,1.16419 -0.13849,1.47201 -1.09071,2.42423 z m 0.53085,-22.3861 c -0.72575,1.19027 -1.94547,1.79958 -3.60242,1.79958 -1.16419,0 -1.47201,-0.13849 -2.42423,-1.09071 -1.22154,-1.22154 -1.56244,-2.1686 -1.29457,-3.59647 0.39393,-2.0998 2.27076,-3.47203 4.41779,-3.23003 1.05555,0.11898 1.50205,0.36395 2.38122,1.30647 0.94072,1.0085 1.08193,1.33878 1.08101,2.52825 -5.8e-4,0.85252 -0.21128,1.71296 -0.5588,2.28291 z m 0.017,-11.71429 c -0.75028,1.19417 -1.96791,1.79958 -3.61939,1.79958 -1.16419,0 -1.47201,-0.13849 -2.42423,-1.09071 -1.22626,-1.22626 -1.56246,-2.16844 -1.29071,-3.61704 0.4211,-2.24464 2.79369,-3.70733 4.96052,-3.05814 1.7129,0.5132 2.7046,1.75242 2.83715,3.54528 0.0852,1.1531 -0.0234,1.72082 -0.46333,2.42103 z"
     style="fill:#142808;fill-opacity:1"
     sodipodi:nodetypes="sssscccccccccccsscsssssssssssssssssscscssssscc" />
  <use
     x="0"
     y="0"
     xlink:href="#use4818"
     id="use4820"
     transform="matrix(-1,0,0,1,586.1453,3.3480588e-6)"
     width="617.71869"
     height="503.24847" />
</svg>
